PathFileType	4	(X/Y/Z)	D:\Share\Shared_Data\Ergonomics\Sit To Stand Pertubation\S1\Perturbed_NoHarness.trc
DataRate	CameraRate	NumFrames	NumMarkers	Units	OrigDataRate	OrigDataStartFrame	OrigNumFrames	
100	100	19	18	m	100	9594	191
Frame#	Time	L_ASIS			R_ASIS			R_Pelvis			V_Sacral			L_Pelvis			Clavical			R_Acromium			L_Acromium			Sternum			Torso			R_Thigh_Med			R_Thigh_Lat			R_Thigh			R_Shank_Med			R_Shank_Lat			R_Shank			R_Heel			R_Toe			
		X1	Y1	Z1	X2	Y2	Z2	X3	Y3	Z3	X4	Y4	Z4	X5	Y5	Z5	X6	Y6	Z6	X7	Y7	Z7	X8	Y8	Z8	X9	Y9	Z9	X10	Y10	Z10	X11	Y11	Z11	X12	Y12	Z12	X13	Y13	Z13	X14	Y14	Z14	X15	Y15	Z15	X16	Y16	Z16	X17	Y17	Z17	X18	Y18	Z18	

9594	95.93	0.38599207	0.87736774	-0.10324576	0.36934601	0.86994543	0.096457024	0.29120319	0.88422986	0.13677219	0.18941093	0.86884052	-0.0091362591	0.29786325	0.88426129	-0.15330655	0.44366843	1.2101001	-0.011322127	0.39572461	1.2957091	0.13439711	0.34224463	1.256549	-0.20724652	0.43061304	1.2284034	0.090450111	0.43885501	1.2181107	-0.068059006	0.39267401	0.4099996	0.031654902	0.42024957	0.43535867	0.14741817	0.4342854	0.61568384	0.094113556	0.35459235	0.094282585	0.094472778	0.33592203	0.099930862	0.17558043	0.37792279	0.30760602	0.17805971	0.28257614	0.034625137	0.12710446	0.48788718	0.046361553	0.13507866
9595	95.94	0.38965219	0.8805929	-0.10381237	0.37335507	0.87347192	0.095985596	0.29525162	0.88758148	0.13684618	0.19385477	0.87216577	-0.0093966055	0.30173938	0.88726105	-0.15374182	0.44352167	1.214613	-0.011544088	0.39451605	1.299317	0.1344603	0.34173611	1.2603167	-0.20762349	0.4303334	1.2325641	0.090313118	0.43885739	1.222563	-0.06843483	0.38969815	0.41058252	0.03266431	0.41781097	0.43609125	0.14804442	0.43518454	0.61616443	0.094099533	0.35423535	0.094601334	0.094605408	0.33566669	0.099986832	0.17575084	0.37613126	0.30799268	0.17865793	0.2825419	0.034930733	0.12734657	0.48792398	0.046307369	0.13508411
9596	95.95	0.39326987	0.88355933	-0.10436779	0.37729572	0.87669104	0.095501259	0.29922574	0.8906947	0.13691406	0.19819336	0.87528613	-0.0097267313	0.30554431	0.890013	-0.15422307	0.44340143	1.2188026	-0.011777372	0.39336319	1.3026141	0.13450171	0.3412388	1.2637546	-0.2080132	0.43009253	1.2364089	0.090155434	0.43886935	1.2266902	-0.068814362	0.3867579	0.41114529	0.033662407	0.41535733	0.4367912	0.14868826	0.43603143	0.61650146	0.094100914	0.35388235	0.094915474	0.094736137	0.33541031	0.10004212	0.17591748	0.37433926	0.30836517	0.17925313	0.28251218	0.035314552	0.12765259	0.4879704	0.046241787	0.13508733
9597	95.96	0.3968418	0.8862735	-0.10491217	0.38115939	0.87960724	0.09500631	0.30311896	0.89355438	0.13695641	0.20242279	0.87819232	-0.010120406	0.30927649	0.89252039	-0.15474359	0.44330975	1.2226702	-0.012022885	0.3922746	1.3056075	0.13451945	0.34075302	1.2668615	-0.20840587	0.42989307	1.2399413	0.089977234	0.4388895	1.2304939	-0.06919664	0.38387708	0.41168945	0.034634151	0.41290155	0.43745468	0.14934842	0.43682843	0.61670422	0.094127045	0.35353452	0.095222923	0.094865631	0.33515207	0.10009583	0.17608026	0.37255484	0.3087215	0.17984317	0.2824881	0.035775696	0.12802289	0.48802487	0.046168091	0.13508858
9598	95.97	0.40036325	0.88874274	-0.10544572	0.38493771	0.88223004	0.094503731	0.30692395	0.89614996	0.13695677	0.20653976	0.88087714	-0.010570256	0.3129343	0.89478827	-0.15529607	0.4432478	1.2262202	-0.01228091	0.39125732	1.3083073	0.13451242	0.34027936	1.2696395	-0.20879349	0.42973645	1.2431663	0.089779228	0.43891705	1.2339792	-0.069580643	0.38107828	0.41221643	0.035566597	0.41045691	0.43807825	0.15002435	0.43757858	0.616784	0.094186493	0.35319327	0.095521866	0.094994545	0.33489133	0.10014691	0.17623915	0.37078638	0.30905972	0.18042662	0.28247064	0.036308601	0.12845383	0.48808527	0.046089539	0.13508826
9599	95.98	0.4038287	0.89097601	-0.1059686	0.38862253	0.88457257	0.093996979	0.31063327	0.89847656	0.13690276	0.21054146	0.88333655	-0.011068483	0.31651611	0.89682361	-0.15587294	0.44321594	1.2294592	-0.012551105	0.39031656	1.3107247	0.13448029	0.33981894	1.2720946	-0.20916972	0.42962289	1.2460917	0.089562515	0.43895151	1.2371531	-0.06996524	0.37838239	0.41272736	0.036449451	0.40803671	0.43865924	0.15071602	0.43828574	0.61675232	0.094286453	0.35286005	0.095810837	0.095123398	0.33462787	0.1001943	0.17639413	0.36904236	0.30937808	0.18100278	0.28246054	0.036902981	0.12893742	0.48814938	0.046009151	0.13508678
9600	95.99	0.4072323	0.89298328	-0.10648044	0.39220645	0.886651	0.093489891	0.31423926	0.90053479	0.13678668	0.21442572	0.88556952	-0.011607338	0.32002032	0.89863538	-0.15646686	0.44321365	1.2323962	-0.012832561	0.38945547	1.3128739	0.13442342	0.33937265	1.2742363	-0.20952997	0.42955157	1.2487279	0.089328636	0.43899292	1.2400245	-0.07034935	0.37580737	0.41322311	0.037275272	0.40565381	0.43919559	0.15142383	0.43895438	0.61662195	0.094432358	0.35253662	0.096088737	0.095252541	0.33436185	0.10023695	0.17654514	0.36733118	0.30967523	0.18157143	0.2824581	0.037544155	0.12946172	0.48821506	0.045929585	0.13508463
9601	96	0.41056839	0.89477576	-0.10698036	0.3956832	0.8884837	0.092986588	0.31773434	0.90233154	0.13660574	0.21819107	0.88757861	-0.012179365	0.32344568	0.90023413	-0.15707072	0.44323978	1.2350428	-0.013123878	0.38867526	1.3147704	0.13434293	0.33894174	1.2760768	-0.20987108	0.42952048	1.2510873	0.089079491	0.43904132	1.2426055	-0.070731934	0.37336755	0.41370413	0.03803944	0.40332031	0.43968597	0.15214832	0.43958969	0.61640564	0.094627602	0.35222495	0.096354805	0.095382088	0.33409406	0.10027399	0.17669202	0.36566055	0.30994995	0.18213266	0.28246323	0.038213966	0.13001143	0.48828018	0.045853012	0.1350824
9602	96.01	0.41383188	0.8963656	-0.10746664	0.39904764	0.89009027	0.092491325	0.32111154	0.90387872	0.13636157	0.22183672	0.88936957	-0.01277749	0.32679129	0.90163208	-0.15767799	0.44329248	1.2374128	-0.013423266	0.38797534	1.3164305	0.13424037	0.33852728	1.2776315	-0.21019141	0.42952664	1.2531842	0.0888172	0.43909677	1.2449089	-0.07111203	0.37107303	0.41417047	0.038739822	0.40104718	0.44013013	0.15289005	0.44019714	0.61611603	0.094873505	0.35192706	0.096608688	0.095511848	0.33382532	0.1003048	0.17683446	0.36403741	0.31020157	0.18268681	0.28247537	0.038892105	0.13056912	0.48834293	0.045781097	0.13508052
9603	96.02	0.41701892	0.89776611	-0.10793677	0.40229651	0.89149097	0.092008392	0.32436502	0.9051933	0.13605975	0.22536292	0.89095111	-0.013394972	0.33005685	0.90284283	-0.15828247	0.44336948	1.2395217	-0.013728662	0.38735297	1.317873	0.13411778	0.33813031	1.2789177	-0.21049033	0.42956613	1.2550345	0.088544098	0.43915942	1.2469502	-0.071488815	0.36892941	0.41462177	0.039376308	0.3988439	0.44052853	0.1536492	0.4407822	0.61576556	0.095169365	0.35164514	0.096850418	0.095641472	0.33355716	0.10032901	0.17697211	0.36246762	0.31042972	0.18323422	0.28249365	0.039557751	0.13111665	0.48840195	0.045715012	0.13507945
9604	96.03	0.42012689	0.89899121	-0.10838747	0.40542825	0.89270599	0.091541908	0.3274906	0.90629504	0.13570885	0.22877092	0.89233447	-0.014025325	0.33324271	0.90388098	-0.15887848	0.44346808	1.2413877	-0.014037824	0.38680411	1.319116	0.13397748	0.33775162	1.2799548	-0.21076831	0.42963434	1.2566562	0.088262642	0.43922891	1.2487462	-0.071861542	0.36693781	0.41505771	0.039950096	0.39671826	0.4408829	0.15442549	0.44135016	0.61536597	0.095512733	0.35138098	0.097080292	0.095770401	0.33329099	0.1003466	0.17710451	0.36095557	0.31063474	0.18377509	0.28251685	0.040191223	0.13163678	0.48845612	0.045655426	0.13507957
9605	96.04	0.42315475	0.90005573	-0.10881492	0.4084433	0.89375482	0.091095741	0.33048602	0.90720667	0.1353194	0.23206322	0.89353314	-0.014662222	0.33634998	0.90476196	-0.15946068	0.44358542	1.2430293	-0.014348437	0.38632288	1.3201782	0.13382188	0.33739188	1.2807637	-0.21102638	0.42972598	1.258068	0.087975304	0.43930481	1.2503146	-0.072229546	0.36509494	0.41547791	0.040462933	0.39467609	0.44119559	0.15521794	0.44190564	0.61492816	0.095899628	0.3511362	0.097298973	0.095898048	0.3330285	0.10035786	0.17723128	0.35950424	0.31081714	0.18430951	0.28254355	0.040775562	0.1321144	0.48850491	0.045602608	0.13508113
9606	96.05	0.426103	0.90097437	-0.10921486	0.41134406	0.89465643	0.090673241	0.33335144	0.90795154	0.13490294	0.23524341	0.89456244	-0.015299463	0.33938031	0.9055014	-0.16002432	0.44371826	1.2444666	-0.014658188	0.38590253	1.3210782	0.13365355	0.33705148	1.2813661	-0.2112662	0.42983551	1.2592887	0.08768454	0.43938614	1.2516744	-0.072592148	0.36339346	0.41588217	0.04091618	0.39272125	0.44146994	0.15602489	0.44245261	0.61446204	0.096324875	0.35091193	0.097507324	0.096023796	0.33277121	0.10036341	0.17735219	0.35811514	0.31097818	0.18483751	0.28257236	0.041297695	0.13253778	0.488548	0.045556488	0.13508424
9607	96.06	0.42897348	0.90176215	-0.10958307	0.41413492	0.8954281	0.090277168	0.33608942	0.90855322	0.13447105	0.2383163	0.89543848	-0.015931001	0.34233615	0.90611542	-0.16056503	0.44386316	1.2457189	-0.014964824	0.385535	1.3218344	0.13347496	0.33673053	1.2817852	-0.21148964	0.42995703	1.2603379	0.087392731	0.43947168	1.252845	-0.072948677	0.36182248	0.4162709	0.041309853	0.3908558	0.44171008	0.15684392	0.4429939	0.6139762	0.096782501	0.35070862	0.097706429	0.096147217	0.33252054	0.10036407	0.17746721	0.35678824	0.31111926	0.18535895	0.28260214	0.041749126	0.13289925	0.48858545	0.045516743	0.13508897
9608	96.07	0.43176926	0.90243359	-0.10991564	0.41682196	0.8960863	0.08990947	0.33870505	0.9090343	0.13403456	0.24128769	0.89617828	-0.016551023	0.34522021	0.90661926	-0.16107909	0.44401648	1.2468065	-0.015266195	0.38521173	1.3224631	0.13328847	0.33642892	1.2820432	-0.21169885	0.43008472	1.2612346	0.087102104	0.43955991	1.2538455	-0.073298393	0.36036835	0.41664511	0.041641827	0.38908005	0.44192056	0.15767192	0.44353149	0.61347791	0.097265938	0.35052609	0.097897514	0.096268028	0.33227765	0.10036093	0.17757658	0.35552234	0.31124222	0.1858737	0.28263171	0.04212606	0.13319525	0.48861749	0.045482872	0.13509532
9609	96.08	0.43449435	0.90300244	-0.11020935	0.41941275	0.89664557	0.089571266	0.3412056	0.90941547	0.13360284	0.24416426	0.89679883	-0.017154116	0.34803568	0.90702771	-0.16156337	0.44417462	1.2477483	-0.015560295	0.38492383	1.322981	0.13309628	0.33614618	1.2821633	-0.21189603	0.43021277	1.2619973	0.086814743	0.43964893	1.2546952	-0.073640442	0.35901498	0.41700635	0.041907429	0.3873927	0.44210626	0.15850529	0.44406625	0.61297296	0.097768379	0.35036362	0.098081818	0.096386208	0.33204324	0.10035514	0.17768091	0.35431497	0.31134918	0.18638167	0.28266031	0.042429035	0.13342624	0.48864453	0.045454296	0.13510326
9610	96.09	0.43715317	0.90348157	-0.11046197	0.42191599	0.89711896	0.089262787	0.34360028	0.90971533	0.13318335	0.24695308	0.89731683	-0.017735437	0.35078564	0.90735455	-0.16201559	0.44433365	1.2485623	-0.015845282	0.38466214	1.3234027	0.13290044	0.33588147	1.2821674	-0.21208339	0.43033569	1.2626434	0.086532516	0.43973672	1.2554125	-0.073973869	0.35774533	0.41735681	0.042099556	0.38579144	0.44227222	0.15934004	0.44459833	0.612466	0.098283066	0.35021951	0.098260635	0.096502052	0.33181769	0.10034798	0.17778107	0.35316318	0.31144235	0.18688277	0.28268723	0.042662132	0.13359578	0.48866705	0.045430424	0.13511269
9611	96.1	0.43975034	0.90388251	-0.11067254	0.42434082	0.89751813	0.088983383	0.3458996	0.90994965	0.13278131	0.24966151	0.89774774	-0.018290892	0.35347311	0.90761206	-0.16243431	0.44448975	1.2492649	-0.016119497	0.384418	1.3237415	0.13270273	0.33563394	1.2820757	-0.21226309	0.43044855	1.2631888	0.086257103	0.43982117	1.2560145	-0.074297653	0.35654202	0.41769922	0.042209663	0.38427325	0.44242322	0.16017191	0.44512732	0.61196014	0.098803375	0.35009189	0.098435135	0.096616066	0.33160092	0.10034071	0.17787825	0.35206351	0.31152396	0.18737698	0.2827121	0.042831951	0.1337099	0.48868542	0.04541069	0.13512364
9612	96.11	0.44229025	0.90421539	-0.11084162	0.42669659	0.89785278	0.088731705	0.34811487	0.91013171	0.13239951	0.25229666	0.89810632	-0.018817299	0.35610092	0.90781128	-0.16281894	0.4446391	1.2498706	-0.016381504	0.3841832	1.3240089	0.13250478	0.33540219	1.2819073	-0.21243718	0.43054681	1.2636476	0.08598996	0.43990021	1.2565178	-0.07461068	0.35538904	0.41803604	0.042229633	0.38283496	0.44256372	0.16099654	0.44565253	0.61145782	0.099323059	0.34997824	0.098606331	0.096729004	0.33139261	0.10033459	0.17797379	0.35101242	0.31159625	0.18786427	0.28273471	0.042946419	0.13377586	0.48869998	0.045394592	0.13513605
